# xmcd CD database file
# Copyright (C) 1993-1998 Ti Kan
#
# Track frame offsets:
#  150
#  19240
#  35962
#  61372
#  77360
#  94125
#  111787
#  132112
#  148225
#  163382
#
# Disc length: 2375 seconds
#
# Revision: 1
# Processed by: cddbd v1.4b41PL1 Copyright (c) Steve Scherf et al.
# Submitted via: CDWizzard Release:4.35
#
DISCID=8c09450a
DTITLE=Spinners - Love Trippin'
DYEAR=1900
DGENRE=
TTITLE0=Love Trippin'
TTITLE1=Heavy On The Sunshine
TTITLE2=Melody -Cupid /I've Loved You For A Long Time
TTITLE3=I Just Want To Be With You
TTITLE4=Streetwise
TTITLE5=I Just Want To Fall In Love
TTITLE6=Now That You're Mine Again
TTITLE7=Split Decision
TTITLE8=I'm Takin' You Back
TTITLE9=Pipedream
EXTD=
EXTT0=
EXTT1=
EXTT2=
EXTT3=
EXTT4=
EXTT5=
EXTT6=
EXTT7=
EXTT8=
EXTT9=
PLAYORDER=
